<?xml version="1.0"?>
<svg xmlns="http://www.w3.org/2000/svg" xmlns:xlink="http://www.w3.org/1999/xlink" xmlns:svgjs="http://svgjs.com/svgjs" version="1.1" width="512" height="512" x="0" y="0" viewBox="0 0 512 512" style="enable-background:new 0 0 512 512" xml:space="preserve" class=""><g><linearGradient xmlns="http://www.w3.org/2000/svg" id="SVGID_1_" gradientUnits="userSpaceOnUse" x1="256" x2="256" y1="496" y2="16"><stop stop-opacity="1" stop-color="#fa697c" offset="0"/><stop stop-opacity="1" stop-color="#fa9f6f" offset="1"/></linearGradient><g xmlns="http://www.w3.org/2000/svg"><g><path d="m100 256c-11.046 0-20 8.954-20 20s8.954 20 20 20 20-8.954 20-20-8.954-20-20-20zm296 160h-360v40h360v40h40v-40h40v-40h-40zm-296-240c-11.046 0-20 8.954-20 20s8.954 20 20 20 20-8.954 20-20-8.954-20-20-20zm0-80c-11.046 0-20 8.954-20 20s8.954 20 20 20 20-8.954 20-20-8.954-20-20-20zm312 0c-11.046 0-20 8.954-20 20s8.954 20 20 20 20-8.954 20-20-8.954-20-20-20zm40-80h-392c-33.084 0-60 26.916-60 60v240c0 33.084 26.916 60 60 60h392c33.084 0 60-26.916 60-60v-240c0-33.084-26.916-60-60-60zm20 300c0 11.028-8.972 20-20 20h-392c-11.028 0-20-8.972-20-20v-240c0-11.028 8.972-20 20-20h392c11.028 0 20 8.972 20 20zm-276-20 133.333-100-133.333-100zm40-120 26.667 20-26.667 20zm176 0c-11.046 0-20 8.954-20 20s8.954 20 20 20 20-8.954 20-20-8.954-20-20-20zm0 80c-11.046 0-20 8.954-20 20s8.954 20 20 20 20-8.954 20-20-8.954-20-20-20z" fill="url(#SVGID_1_)" data-original="url(#SVGID_1_)" style=""/></g></g></g></svg>
